<?xml version="1.0" encoding="UTF-8"?>
<svg xmlns="http://www.w3.org/2000/svg" xmlns:xlink="http://www.w3.org/1999/xlink" width="384pt" height="383.999986pt" viewBox="0 0 384 383.999986" version="1.2">
<g id="surface1">
<path style=" stroke:none;fill-rule:nonzero;fill:rgb(44.709778%,53.729248%,85.488892%);fill-opacity:1;" d="M 170.382812 140.898438 C 174.085938 139.539062 177.90625 138.75 181.84375 138.527344 C 182.867188 138.382812 183.890625 138.382812 184.914062 138.527344 C 185.941406 138.671875 186.921875 138.957031 187.867188 139.378906 C 188.808594 139.804688 189.675781 140.355469 190.460938 141.023438 C 191.25 141.695312 191.925781 142.464844 192.496094 143.328125 C 192.976562 144.890625 193.167969 146.484375 193.074219 148.117188 C 192.976562 149.746094 192.597656 151.308594 191.933594 152.804688 C 187.382812 168.808594 184 185.058594 181.78125 201.550781 C 179.800781 213.96875 179.425781 226.4375 180.660156 238.949219 C 181.09375 243.3125 182.257812 247.46875 184.148438 251.417969 C 185.117188 253.433594 186.433594 255.195312 188.09375 256.695312 C 189.753906 258.195312 191.636719 259.324219 193.742188 260.082031 C 202.460938 262.824219 211.371094 256.777344 217.476562 251.167969 C 223.578125 245.558594 229.558594 239.761719 235.289062 233.777344 C 241.8125 225.707031 249.578125 219.097656 258.585938 213.953125 C 259.484375 213.507812 260.414062 213.140625 261.375 212.847656 C 262.332031 212.554688 263.308594 212.339844 264.304688 212.207031 C 265.296875 212.078125 266.296875 212.027344 267.300781 212.0625 C 268.300781 212.09375 269.292969 212.207031 270.277344 212.40625 C 271.261719 212.601562 272.222656 212.878906 273.160156 213.234375 C 274.097656 213.589844 275 214.019531 275.867188 214.523438 C 276.734375 215.027344 277.554688 215.597656 278.328125 216.238281 C 279.101562 216.878906 279.816406 217.574219 280.476562 218.332031 C 281.132812 219.089844 281.726562 219.898438 282.25 220.753906 C 282.777344 221.609375 283.226562 222.5 283.605469 223.429688 C 283.984375 224.359375 284.28125 225.3125 284.503906 226.292969 C 284.726562 227.273438 284.863281 228.261719 284.921875 229.265625 C 284.980469 230.265625 284.953125 231.265625 284.847656 232.265625 C 284.742188 233.261719 284.550781 234.246094 284.285156 235.210938 C 284.015625 236.179688 283.667969 237.117188 283.246094 238.027344 C 282.820312 238.9375 282.328125 239.804688 281.757812 240.632812 C 272.105469 257.777344 253.914062 300.726562 185.644531 294.554688 C 117.371094 288.382812 89.527344 238.453125 88.34375 205.789062 C 87.785156 190.390625 103.730469 177.863281 115.003906 170.007812 C 130.457031 159.375 146.859375 150.503906 164.214844 143.390625 C 166.207031 142.582031 168.328125 141.769531 170.382812 140.898438 Z M 170.382812 140.898438 "/>
<path style=" stroke:none;fill-rule:nonzero;fill:rgb(44.709778%,53.729248%,85.488892%);fill-opacity:1;" d="M 166.269531 61.917969 C 166.269531 61.917969 189.753906 62.292969 186.390625 78.5625 C 183.027344 94.832031 160.789062 91.03125 163.902344 140.898438 C 165.710938 168.449219 165.648438 166.332031 165.148438 158.914062 C 165.125 158.5 165.078125 158.085938 165 157.679688 C 164.925781 157.269531 164.824219 156.871094 164.699219 156.472656 C 164.574219 156.078125 164.425781 155.691406 164.25 155.316406 C 164.078125 154.9375 163.878906 154.574219 163.660156 154.222656 C 163.441406 153.871094 163.199219 153.535156 162.9375 153.214844 C 162.675781 152.890625 162.394531 152.585938 162.09375 152.300781 C 161.792969 152.015625 161.476562 151.75 161.144531 151.503906 C 160.808594 151.257812 160.460938 151.03125 160.097656 150.828125 C 159.738281 150.625 159.363281 150.445312 158.980469 150.292969 C 158.597656 150.136719 158.203125 150.003906 157.804688 149.898438 C 157.402344 149.792969 156.996094 149.710938 156.585938 149.65625 C 156.175781 149.597656 155.761719 149.570312 155.347656 149.566406 C 154.933594 149.5625 154.519531 149.585938 154.105469 149.632812 C 153.695312 149.683594 153.289062 149.757812 152.886719 149.855469 C 152.484375 149.953125 152.089844 150.078125 151.703125 150.226562 C 151.316406 150.378906 150.9375 150.550781 150.574219 150.746094 L 137.117188 157.976562 C 136.742188 158.183594 136.355469 158.363281 135.957031 158.515625 C 135.554688 158.671875 135.148438 158.796875 134.734375 158.898438 C 134.316406 159 133.898438 159.074219 133.472656 159.125 C 133.046875 159.171875 132.621094 159.191406 132.191406 159.179688 C 131.761719 159.171875 131.339844 159.136719 130.914062 159.074219 C 130.492188 159.011719 130.074219 158.917969 129.664062 158.800781 C 129.25 158.683594 128.847656 158.539062 128.457031 158.371094 C 128.0625 158.199219 127.683594 158.003906 127.316406 157.785156 C 126.949219 157.566406 126.59375 157.324219 126.257812 157.058594 C 125.921875 156.796875 125.605469 156.511719 125.304688 156.203125 C 125.007812 155.898438 124.726562 155.574219 124.46875 155.230469 C 124.214844 154.890625 123.980469 154.53125 123.769531 154.160156 C 123.558594 153.785156 123.371094 153.402344 123.210938 153.003906 C 123.046875 152.609375 122.914062 152.203125 122.804688 151.789062 C 122.695312 151.375 122.613281 150.953125 122.558594 150.53125 C 122.503906 150.105469 122.480469 149.679688 122.480469 149.25 L 122.480469 106.550781 C 122.503906 105.496094 122.695312 104.472656 123.046875 103.476562 C 123.398438 102.480469 123.898438 101.566406 124.539062 100.730469 C 125.183594 99.898438 125.941406 99.183594 126.816406 98.589844 C 127.6875 97.996094 128.628906 97.554688 129.644531 97.261719 L 145.777344 92.027344 C 146.640625 91.75 147.449219 91.359375 148.207031 90.855469 C 148.964844 90.355469 149.636719 89.761719 150.230469 89.074219 C 150.824219 88.386719 151.3125 87.632812 151.699219 86.8125 C 152.085938 85.988281 152.355469 85.128906 152.503906 84.234375 C 153.75 75.320312 157.613281 59.863281 166.269531 61.917969 Z M 166.269531 61.917969 "/>
<path style=" stroke:none;fill-rule:nonzero;fill:rgb(44.709778%,53.729248%,85.488892%);fill-opacity:1;" d="M 116.6875 175.183594 C 116.6875 175.183594 130.515625 169.445312 129.832031 209.964844 C 129.144531 250.484375 161.847656 273.359375 170.132812 273.359375 C 178.417969 273.359375 192.808594 278.035156 190.316406 287.882812 C 187.824219 297.734375 101.113281 289.441406 92.828125 213.582031 C 92.765625 213.644531 82.925781 184.53125 116.6875 175.183594 Z M 116.6875 175.183594 "/>
<path style="fill:none;stroke-width:2;stroke-linecap:round;stroke-linejoin:round;stroke:rgb(16.079712%,31.759644%,51.368713%);stroke-opacity:1;stroke-miterlimit:4;" d="M 25.219874 16.600001 L 25.219874 12.600084 C 25.220501 12.491047 25.231789 12.383263 25.253737 12.276732 C 25.275058 12.170201 25.30704 12.066804 25.349055 11.96654 C 25.39107 11.865649 25.442491 11.770398 25.502692 11.68016 C 25.56352 11.589922 25.631873 11.505951 25.709005 11.428873 C 25.786137 11.352421 25.86954 11.28349 25.959841 11.222704 C 26.050769 11.161919 26.146087 11.11116 26.246421 11.069175 C 26.346756 11.027189 26.450225 10.99523 26.556831 10.973297 C 26.663436 10.951991 26.771296 10.940711 26.879782 10.940085 L 35.11975 10.940085 C 35.228863 10.940711 35.336723 10.951991 35.443328 10.973297 C 35.549934 10.99523 35.653404 11.027189 35.753738 11.069175 C 35.854072 11.11116 35.94939 11.161919 36.039691 11.222704 C 36.129992 11.28349 36.214022 11.352421 36.291154 11.428873 C 36.367659 11.505951 36.436639 11.589922 36.497467 11.68016 C 36.557668 11.770398 36.609089 11.865649 36.651104 11.96654 C 36.693119 12.066804 36.724474 12.170201 36.746422 12.276732 C 36.76837 12.383263 36.779658 12.491047 36.780285 12.600084 L 36.780285 16.600001 L 29.57 16.600001 " transform="matrix(6.229166,0,0,6.233529,-1.169099,-8.707049)"/>
<path style="fill:none;stroke-width:2;stroke-linecap:round;stroke-linejoin:round;stroke:rgb(16.079712%,31.759644%,51.368713%);stroke-opacity:1;stroke-miterlimit:4;" d="M 19.8501 24.099766 L 19.8501 18.909838 C 19.850727 18.758815 19.865777 18.608419 19.895877 18.459902 C 19.925977 18.311386 19.970501 18.167256 20.028193 18.027513 C 20.086513 17.88777 20.158001 17.754919 20.242658 17.628963 C 20.326688 17.503006 20.422633 17.386448 20.529238 17.279291 C 20.636471 17.172134 20.75311 17.076883 20.879155 16.992285 C 21.004573 16.908313 21.137516 16.836875 21.277357 16.778596 C 21.417198 16.720318 21.561429 16.675826 21.71005 16.645746 C 21.85867 16.616294 22.008545 16.600627 22.1603 16.600001 L 25.219874 16.600001 " transform="matrix(6.229166,0,0,6.233529,-1.169099,-8.707049)"/>
<path style="fill:none;stroke-width:2;stroke-linecap:round;stroke-linejoin:round;stroke:rgb(16.079712%,31.759644%,51.368713%);stroke-opacity:1;stroke-miterlimit:4;" d="M 36.780285 16.600001 L 39.839859 16.600001 C 39.991615 16.600627 40.141489 16.616294 40.29011 16.645746 C 40.43873 16.675826 40.582334 16.720318 40.722175 16.778596 C 40.862016 16.836875 40.994959 16.908313 41.121004 16.992285 C 41.247049 17.076883 41.363688 17.172134 41.470294 17.279291 C 41.577526 17.386448 41.673471 17.503006 41.757501 17.628963 C 41.842158 17.754919 41.913019 17.88777 41.971339 18.027513 C 42.029658 18.167256 42.074182 18.311386 42.104282 18.459902 C 42.133755 18.608419 42.149432 18.758815 42.15006 18.909838 L 42.15006 28.44998 L 36.789691 25.339909 L 33.390234 23.340264 C 33.210259 23.235613 33.024641 23.143496 32.833378 23.063911 C 32.641489 22.984326 32.445209 22.917274 32.24454 22.863382 C 32.044499 22.80949 31.841321 22.768758 31.635009 22.741185 C 31.429323 22.714239 31.222383 22.700453 31.014816 22.700453 C 30.807249 22.700453 30.600309 22.714239 30.394624 22.741185 C 30.188938 22.768758 29.985761 22.80949 29.785092 22.863382 C 29.584423 22.917274 29.388771 22.984326 29.196881 23.063911 C 29.004992 23.143496 28.819373 23.235613 28.640025 23.340264 L 25.239941 25.339909 L 19.8802 28.44998 " transform="matrix(6.229166,0,0,6.233529,-1.169099,-8.707049)"/>
<path style="fill:none;stroke-width:2;stroke-linecap:round;stroke-linejoin:round;stroke:rgb(16.079712%,31.759644%,51.368713%);stroke-opacity:1;stroke-miterlimit:4;" d="M 17.509798 51.919959 C 17.598218 52.007063 17.6904 52.089155 17.786972 52.167486 C 17.882917 52.245817 17.982624 52.319762 18.085467 52.388694 C 18.18831 52.457626 18.294288 52.521544 18.403402 52.581076 C 18.511889 52.639981 18.623511 52.693873 18.737641 52.742752 C 18.851145 52.791631 18.967156 52.835497 19.085049 52.873096 C 19.203569 52.911321 19.322717 52.943907 19.443745 52.970853 C 19.564773 52.997799 19.686429 53.019105 19.809966 53.034772 C 19.932875 53.049811 20.055785 53.059838 20.179949 53.064224 C 20.304113 53.067984 20.42765 53.066731 20.551187 53.059211 C 20.67535 53.051691 20.79826 53.038532 20.920543 53.019732 C 21.043452 53.000933 21.164481 52.976493 21.284882 52.946414 C 21.405284 52.916335 21.523804 52.880615 21.640442 52.839256 C 21.757708 52.798524 21.872466 52.752152 21.984715 52.70014 C 22.097591 52.648128 22.207332 52.591102 22.314565 52.529691 C 22.421797 52.467652 22.526521 52.4006 22.627483 52.328535 C 22.728444 52.257097 22.82627 52.180646 22.919707 52.099808 " transform="matrix(6.229166,0,0,6.233529,-1.169099,-8.707049)"/>
<path style="fill:none;stroke-width:2;stroke-linecap:round;stroke-linejoin:round;stroke:rgb(16.079712%,31.759644%,51.368713%);stroke-opacity:1;stroke-miterlimit:4;" d="M 22.919707 52.099808 C 23.099682 52.253964 23.291571 52.390574 23.495376 52.510264 C 23.69918 52.629955 23.912391 52.730846 24.134381 52.81231 C 24.355744 52.894402 24.583378 52.95644 24.816028 52.997799 C 25.048679 53.039158 25.28321 53.060464 25.52025 53.060464 C 25.756664 53.060464 25.991195 53.039158 26.223846 52.997799 C 26.456496 52.95644 26.68413 52.894402 26.90612 52.81231 C 27.127483 52.730846 27.340694 52.629955 27.544498 52.510264 C 27.748303 52.390574 27.940192 52.253964 28.120167 52.099808 " transform="matrix(6.229166,0,0,6.233529,-1.169099,-8.707049)"/>
<path style="fill:none;stroke-width:2;stroke-linecap:round;stroke-linejoin:round;stroke:rgb(16.079712%,31.759644%,51.368713%);stroke-opacity:1;stroke-miterlimit:4;" d="M 33.32 52.099808 C 33.140025 52.253964 32.948763 52.390574 32.744331 52.510264 C 32.540527 52.629955 32.327943 52.730846 32.105953 52.81231 C 31.883963 52.894402 31.656957 52.95644 31.423679 52.997799 C 31.191029 53.039158 30.956497 53.060464 30.720084 53.060464 C 30.483671 53.060464 30.249139 53.039158 30.015861 52.997799 C 29.783211 52.95644 29.556204 52.894402 29.334214 52.81231 C 29.112224 52.730846 28.89964 52.629955 28.695209 52.510264 C 28.491405 52.390574 28.299515 52.253964 28.120167 52.099808 " transform="matrix(6.229166,0,0,6.233529,-1.169099,-8.707049)"/>
<path style="fill:none;stroke-width:2;stroke-linecap:round;stroke-linejoin:round;stroke:rgb(16.079712%,31.759644%,51.368713%);stroke-opacity:1;stroke-miterlimit:4;" d="M 38.529867 52.099808 C 38.350519 52.253964 38.158629 52.390574 37.954198 52.510264 C 37.750394 52.629955 37.53781 52.730846 37.31582 52.81231 C 37.09383 52.894402 36.866823 52.95644 36.634173 52.997799 C 36.400895 53.039158 36.166363 53.060464 35.92995 53.060464 C 35.693537 53.060464 35.459006 53.039158 35.226355 52.997799 C 34.993077 52.95644 34.766071 52.894402 34.544081 52.81231 C 34.322091 52.730846 34.109507 52.629955 33.905703 52.510264 C 33.701271 52.390574 33.510009 52.253964 33.330034 52.099808 " transform="matrix(6.229166,0,0,6.233529,-1.169099,-8.707049)"/>
<path style="fill:none;stroke-width:2;stroke-linecap:round;stroke-linejoin:round;stroke:rgb(16.079712%,31.759644%,51.368713%);stroke-opacity:1;stroke-miterlimit:4;" d="M 38.529867 52.099808 C 38.88919 52.416893 39.293036 52.661287 39.740151 52.833617 C 40.187267 53.005946 40.650687 53.094304 41.129784 53.099943 C 41.59822 53.060464 42.056623 52.970227 42.504993 52.82923 C 42.953362 52.688233 43.380411 52.499611 43.786765 52.263364 C 44.19312 52.027116 44.568747 51.749509 44.913647 51.429917 C 45.258546 51.110325 45.563939 50.75752 45.829826 50.37025 C 45.95399 50.217347 46.039274 50.045644 46.086933 49.855142 C 46.133965 49.66464 46.138354 49.472885 46.100102 49.279876 C 45.350102 49.615135 44.566866 49.825063 43.749767 49.910287 C 41.909884 49.910287 39.360135 48.640065 38.950017 46.699952 C 38.950017 46.699952 37.150268 47.569744 36.789691 47.700088 C 34.920335 48.361832 32.993286 48.69521 31.009799 48.700223 C 30.530075 48.700223 30.050351 48.68017 29.571881 48.639438 C 29.093411 48.598706 28.61745 48.537921 28.144624 48.457083 C 27.67117 48.375618 27.202107 48.274727 26.737433 48.153783 C 26.272759 48.032213 25.814356 47.891843 25.361597 47.73142 C 24.908837 47.571624 24.463603 47.392402 24.026521 47.19438 C 23.588812 46.996358 23.160509 46.780163 22.741613 46.545169 C 22.322717 46.310801 21.914481 46.058887 21.516906 45.789427 C 21.11933 45.519967 20.734297 45.234214 20.360551 44.932168 C 19.987432 44.630122 19.62811 44.31241 19.281956 43.979658 C 18.935802 43.646906 18.604071 43.300367 18.288017 42.939416 C 17.971337 42.577838 17.670333 42.204354 17.385634 41.81771 C 17.100935 41.431066 16.833168 41.033142 16.582332 40.623312 C 16.331496 40.214109 16.098218 39.794879 15.883126 39.364996 C 15.668034 38.93574 15.471755 38.498337 15.294288 38.052161 C 15.116194 37.605985 14.957541 37.153543 14.818327 36.694207 C 14.679112 36.234245 14.559965 35.769897 14.460258 35.299908 C 14.41448 35.0599 14.387515 34.817386 14.379363 34.572992 C 14.371211 34.328598 14.381872 34.084831 14.410718 33.842317 C 14.440191 33.599176 14.48785 33.360422 14.554321 33.124801 C 14.620166 32.88918 14.704196 32.660452 14.805785 32.437991 C 14.907373 32.215529 15.025266 32.001841 15.159464 31.797553 C 15.293661 31.593264 15.442909 31.400256 15.607206 31.219153 C 15.770877 31.037424 15.948343 30.870109 16.138352 30.715952 C 16.32836 30.561796 16.528402 30.423306 16.739731 30.299856 L 19.860133 28.500113 L 25.219874 25.390041 L 28.619958 23.38977 C 28.799306 23.285746 28.984925 23.193628 29.176814 23.114043 C 29.368704 23.033832 29.564983 22.967407 29.765025 22.912888 C 29.965694 22.858996 30.168871 22.81889 30.374557 22.791318 C 30.58087 22.764371 30.787182 22.750585 30.994749 22.750585 C 31.202943 22.750585 31.409256 22.764371 31.615569 22.791318 C 31.821254 22.81889 32.024432 22.858996 32.225101 22.912888 C 32.425142 22.967407 32.621422 23.033832 32.813311 23.114043 C 33.004574 23.193628 33.190193 23.285746 33.370168 23.38977 L 36.770251 25.390041 L 42.129993 28.500113 L 45.249767 30.299856 C 45.462351 30.422053 45.663647 30.560543 45.854282 30.714072 C 46.044918 30.867602 46.222384 31.034918 46.387309 31.21602 C 46.551607 31.397122 46.701481 31.590131 46.836306 31.794419 C 46.97113 31.998708 47.089023 32.212396 47.190612 32.434857 C 47.2922 32.657945 47.376231 32.886673 47.442075 33.122921 C 47.50792 33.358542 47.555578 33.597922 47.583797 33.841063 C 47.612644 34.084204 47.622677 34.327971 47.613898 34.572366 C 47.604491 34.817386 47.576899 35.0599 47.529868 35.299908 C 47.237017 36.673528 46.780495 37.989496 46.159048 39.249066 C 45.538229 40.508008 44.771297 41.6717 43.860135 42.740141 " transform="matrix(6.229166,0,0,6.233529,-1.169099,-8.707049)"/>
<path style=" stroke:none;fill-rule:nonzero;fill:rgb(44.709778%,53.729248%,85.488892%);fill-opacity:1;" d="M 266.871094 272.050781 C 266.871094 272.460938 266.832031 272.867188 266.753906 273.265625 C 266.671875 273.667969 266.554688 274.058594 266.398438 274.4375 C 266.242188 274.816406 266.050781 275.175781 265.820312 275.515625 C 265.59375 275.855469 265.335938 276.167969 265.046875 276.457031 C 264.757812 276.75 264.445312 277.007812 264.101562 277.234375 C 263.761719 277.460938 263.40625 277.652344 263.027344 277.808594 C 262.648438 277.964844 262.257812 278.085938 261.859375 278.164062 C 261.457031 278.246094 261.050781 278.285156 260.644531 278.285156 C 260.234375 278.285156 259.828125 278.246094 259.425781 278.164062 C 259.027344 278.085938 258.636719 277.964844 258.257812 277.808594 C 257.882812 277.652344 257.523438 277.460938 257.183594 277.234375 C 256.84375 277.007812 256.527344 276.75 256.238281 276.457031 C 255.949219 276.167969 255.691406 275.855469 255.464844 275.515625 C 255.234375 275.175781 255.042969 274.816406 254.886719 274.4375 C 254.730469 274.058594 254.613281 273.667969 254.535156 273.265625 C 254.453125 272.867188 254.414062 272.460938 254.414062 272.050781 C 254.414062 271.640625 254.453125 271.238281 254.535156 270.835938 C 254.613281 270.433594 254.730469 270.042969 254.886719 269.664062 C 255.042969 269.289062 255.234375 268.929688 255.464844 268.589844 C 255.691406 268.246094 255.949219 267.933594 256.238281 267.644531 C 256.527344 267.355469 256.84375 267.09375 257.183594 266.867188 C 257.523438 266.640625 257.882812 266.449219 258.257812 266.292969 C 258.636719 266.136719 259.027344 266.015625 259.425781 265.9375 C 259.828125 265.859375 260.234375 265.816406 260.644531 265.816406 C 261.050781 265.816406 261.457031 265.859375 261.859375 265.9375 C 262.257812 266.015625 262.648438 266.136719 263.027344 266.292969 C 263.40625 266.449219 263.761719 266.640625 264.101562 266.867188 C 264.445312 267.09375 264.757812 267.355469 265.046875 267.644531 C 265.335938 267.933594 265.59375 268.246094 265.820312 268.589844 C 266.050781 268.929688 266.242188 269.289062 266.398438 269.664062 C 266.554688 270.042969 266.671875 270.433594 266.753906 270.835938 C 266.832031 271.238281 266.871094 271.640625 266.871094 272.050781 Z M 266.871094 272.050781 "/>
</g>
</svg>
